<svg width="151" height="151" viewBox="0 0 151 151" fill="none" xmlns="http://www.w3.org/2000/svg">
<g clip-path="url(#clip0_111_1882)">
<path d="M76.8421 98.1031C90.2883 98.1031 101.189 87.2028 101.189 73.7566C101.189 60.3104 90.2883 49.4102 76.8421 49.4102C63.3959 49.4102 52.4956 60.3104 52.4956 73.7566C52.4956 87.2028 63.3959 98.1031 76.8421 98.1031Z" fill="#FFB6B6"/>
<path d="M62.8656 101.704L61.7657 90.5851L83.7303 86.478L96.7002 118.057L74.1438 143.997L58.0724 112.418L62.8656 101.704Z" fill="#FFB6B6"/>
<path d="M61.4128 96.1503L66.2148 97.2352C66.2148 97.2352 62.4399 85.265 63.7212 84.1222C65.0025 82.9794 68.1423 84.7801 68.1423 84.7801L71.4417 88.4793L75.4607 84.3874C75.4607 84.3874 79.8239 78.962 81.5323 77.4383C83.2407 75.9146 80.4966 70.2587 80.4966 70.2587C80.4966 70.2587 105.842 63.4243 96.411 51.131C96.411 51.131 90.8816 41.4925 89.0809 44.6323C87.2802 47.7721 85.1331 42.7854 85.1331 42.7854L78.5766 44.0322C78.5766 44.0322 65.6365 36.4024 53.3548 52.7248C41.0731 69.0472 61.4128 96.1503 61.4128 96.1503Z" fill="#2F2E41"/>
<path d="M122.632 133.536C109.326 144.323 92.8656 150.185 75.4999 150.185C59.6428 150.185 44.5385 145.296 31.9041 136.234C31.9266 135.997 31.9492 135.763 31.9689 135.529C32.3044 131.864 32.6033 128.3 32.8007 125.345C33.5648 113.872 60.3308 106.226 60.3308 106.226C60.3308 106.226 60.452 106.347 60.6945 106.558C62.1719 107.855 68.1691 112.558 78.6861 113.872C88.0639 115.045 91.1513 109.482 92.0845 106.818C92.3665 106.006 92.4511 105.461 92.4511 105.461L119.981 118.462C121.777 121.028 122.479 126.554 122.617 132.766C122.623 133.023 122.629 133.276 122.632 133.536Z" fill="#E2E2E2"/>
<mask id="path-7-inside-1_111_1882" fill="white">
<path d="M128.533 22.1522C114.367 7.98674 95.5329 0.185059 75.5 0.185059C55.4671 0.185059 36.6325 7.98674 22.4671 22.1522C8.3017 36.3176 0.5 55.1522 0.5 75.1851C0.5 93.4698 6.99907 110.756 18.9088 124.406C20.0451 125.711 21.2322 126.983 22.4671 128.218C22.7575 128.508 23.0508 128.799 23.3468 129.081C24.1363 129.845 24.9399 130.592 25.7575 131.317C26.2538 131.759 26.7557 132.194 27.2632 132.619C27.6607 132.955 28.0583 133.285 28.4615 133.609C28.4699 133.617 28.4756 133.623 28.484 133.629C29.6034 134.531 30.7425 135.399 31.9041 136.234C44.5385 145.296 59.6429 150.185 75.5 150.185C92.8656 150.185 109.326 144.323 122.632 133.536C123.717 132.656 124.78 131.742 125.823 130.798C126.745 129.963 127.648 129.103 128.533 128.218C128.812 127.939 129.091 127.657 129.365 127.372C130.126 126.588 130.865 125.79 131.586 124.981C143.815 111.244 150.5 93.7292 150.5 75.1851C150.5 55.1522 142.698 36.3176 128.533 22.1522ZM131.403 124.279C130.698 125.08 129.977 125.869 129.238 126.639C128.087 127.837 126.9 128.999 125.674 130.118C125.209 130.547 124.738 130.964 124.261 131.379C123.72 131.85 123.173 132.312 122.617 132.766C118.239 136.361 113.443 139.462 108.314 141.989C106.287 142.99 104.209 143.9 102.083 144.715C93.8243 147.884 84.8609 149.621 75.5 149.621C66.4662 149.621 57.8045 148.003 49.7885 145.042C46.4981 143.83 43.3177 142.389 40.2641 140.74C39.8158 140.497 39.3703 140.252 38.9276 140.001C36.5987 138.681 34.3459 137.241 32.1833 135.684C32.1128 135.633 32.0395 135.58 31.969 135.529C30.4295 134.418 28.9323 133.248 27.4859 132.019C26.9558 131.57 26.4314 131.116 25.9154 130.651C25.0752 129.904 24.2519 129.134 23.4483 128.345C21.9258 126.853 20.4709 125.3 19.0808 123.684C7.85621 110.647 1.06391 93.6954 1.06391 75.1851C1.06391 34.1409 34.4558 0.748968 75.5 0.748968C116.544 0.748968 149.936 34.1409 149.936 75.1851C149.936 93.9802 142.935 111.168 131.403 124.279Z"/>
</mask>
<path d="M128.533 22.1522L127.826 22.8593H127.826L128.533 22.1522ZM22.4671 22.1522L23.1742 22.8593L22.4671 22.1522ZM18.9088 124.406L19.6631 123.749L19.6623 123.748L18.9088 124.406ZM22.4671 128.218L23.1742 127.511L22.4671 128.218ZM23.3468 129.081L24.0423 128.362L24.0365 128.357L23.3468 129.081ZM25.7575 131.317L26.4232 130.57L26.4208 130.568L25.7575 131.317ZM27.2632 132.619L27.9082 131.855L27.9059 131.853L27.2632 132.619ZM28.4615 133.609L29.1686 132.902L29.1303 132.864L29.0882 132.83L28.4615 133.609ZM28.484 133.629L29.1116 132.85L29.0767 132.822L29.0395 132.797L28.484 133.629ZM31.9041 136.234L31.3207 137.046L31.3213 137.047L31.9041 136.234ZM122.632 133.536L122.002 132.759L122.002 132.759L122.632 133.536ZM125.823 130.798L125.152 130.056L125.152 130.057L125.823 130.798ZM128.533 128.218L129.24 128.925V128.925L128.533 128.218ZM129.365 127.372L128.647 126.675L128.643 126.679L129.365 127.372ZM131.586 124.981L132.333 125.647L132.333 125.646L131.586 124.981ZM131.403 124.279L132.154 124.94L132.154 124.939L131.403 124.279ZM129.238 126.639L129.959 127.332L129.959 127.331L129.238 126.639ZM125.674 130.118L125 129.38L124.996 129.383L125.674 130.118ZM124.261 131.379L123.605 130.624L123.605 130.624L124.261 131.379ZM122.617 132.766L121.985 131.992L121.983 131.993L122.617 132.766ZM108.314 141.989L107.872 141.092L107.871 141.092L108.314 141.989ZM102.083 144.715L101.725 143.781L101.724 143.782L102.083 144.715ZM49.7885 145.042L50.135 144.104L50.1343 144.104L49.7885 145.042ZM40.2641 140.74L39.7884 141.619L39.7888 141.619L40.2641 140.74ZM38.9276 140.001L39.4208 139.131L39.4206 139.131L38.9276 140.001ZM32.1833 135.684L31.599 136.496L31.5991 136.496L32.1833 135.684ZM31.969 135.529L31.3838 136.34L31.3847 136.341L31.969 135.529ZM27.4859 132.019L28.1335 131.257L28.1317 131.255L27.4859 132.019ZM25.9154 130.651L26.5851 129.909L26.5799 129.904L25.9154 130.651ZM23.4483 128.345L24.1491 127.631L24.1481 127.63L23.4483 128.345ZM19.0808 123.684L19.8389 123.032L19.8387 123.032L19.0808 123.684ZM129.24 21.4451C114.887 7.0921 95.7981 -0.814941 75.5 -0.814941V1.18506C95.2677 1.18506 113.848 8.88138 127.826 22.8593L129.24 21.4451ZM75.5 -0.814941C55.2019 -0.814941 36.1129 7.0921 21.76 21.4451L23.1742 22.8593C37.1521 8.88138 55.7323 1.18506 75.5 1.18506V-0.814941ZM21.76 21.4451C7.40706 35.798 -0.5 54.8869 -0.5 75.1851H1.5C1.5 55.4174 9.19634 36.8372 23.1742 22.8593L21.76 21.4451ZM-0.5 75.1851C-0.5 93.7111 6.08629 111.231 18.1554 125.063L19.6623 123.748C7.91185 110.282 1.5 93.2286 1.5 75.1851H-0.5ZM18.1546 125.062C19.3061 126.385 20.5089 127.674 21.76 128.925L23.1742 127.511C21.9554 126.292 20.7841 125.037 19.6631 123.749L18.1546 125.062ZM21.76 128.925C22.0521 129.217 22.3522 129.514 22.6572 129.805L24.0365 128.357C23.7493 128.083 23.4629 127.8 23.1742 127.511L21.76 128.925ZM22.6514 129.799C23.4504 130.573 24.2647 131.33 25.0943 132.065L26.4208 130.568C25.615 129.854 24.8222 129.117 24.0423 128.362L22.6514 129.799ZM25.0918 132.063C25.5956 132.512 26.1052 132.953 26.6205 133.385L27.9059 131.853C27.4061 131.434 26.9119 131.006 26.4232 130.57L25.0918 132.063ZM26.6182 133.383C27.0199 133.722 27.4238 134.058 27.8348 134.388L29.0882 132.83C28.6928 132.512 28.3016 132.187 27.9082 131.855L26.6182 133.383ZM27.7544 134.316C27.7556 134.317 27.8264 134.392 27.9286 134.46L29.0395 132.797C29.1247 132.854 29.1842 132.917 29.1686 132.902L27.7544 134.316ZM27.8565 134.407C28.9898 135.321 30.1436 136.2 31.3207 137.046L32.4876 135.422C31.3414 134.598 30.217 133.741 29.1116 132.85L27.8565 134.407ZM31.3213 137.047C44.1262 146.231 59.4345 151.185 75.5 151.185V149.185C59.8512 149.185 44.9509 144.361 32.487 135.421L31.3213 137.047ZM75.5 151.185C93.0943 151.185 109.777 145.245 123.261 134.312L122.002 132.759C108.875 143.402 92.6369 149.185 75.5 149.185V151.185ZM123.261 134.313C124.362 133.421 125.439 132.495 126.494 131.539L125.152 130.057C124.122 130.99 123.073 131.891 122.002 132.759L123.261 134.313ZM126.494 131.539C127.429 130.693 128.343 129.822 129.24 128.925L127.826 127.511C126.952 128.385 126.061 129.233 125.152 130.056L126.494 131.539ZM129.24 128.925C129.521 128.644 129.806 128.357 130.086 128.065L128.643 126.679C128.377 126.957 128.103 127.234 127.826 127.511L129.24 128.925ZM130.082 128.069C130.854 127.274 131.603 126.465 132.333 125.647L130.84 124.315C130.127 125.115 129.398 125.903 128.647 126.675L130.082 128.069ZM132.333 125.646C144.725 111.726 151.5 93.974 151.5 75.1851H149.5C149.5 93.4845 142.905 110.763 130.84 124.316L132.333 125.646ZM151.5 75.1851C151.5 54.8869 143.593 35.798 129.24 21.4451L127.826 22.8593C141.804 36.8372 149.5 55.4174 149.5 75.1851H151.5ZM130.653 123.618C129.956 124.41 129.244 125.188 128.516 125.947L129.959 127.331C130.709 126.55 131.441 125.75 132.154 124.94L130.653 123.618ZM128.516 125.946C127.38 127.13 126.209 128.276 125 129.38L126.348 130.857C127.592 129.722 128.794 128.545 129.959 127.332L128.516 125.946ZM124.996 129.383C124.54 129.803 124.077 130.214 123.605 130.624L124.918 132.133C125.399 131.715 125.877 131.291 126.351 130.854L124.996 129.383ZM123.605 130.624C123.071 131.089 122.532 131.545 121.985 131.992L123.25 133.54C123.814 133.079 124.369 132.61 124.918 132.133L123.605 130.624ZM121.983 131.993C117.663 135.54 112.931 138.599 107.872 141.092L108.756 142.886C113.954 140.325 118.815 137.182 123.252 133.539L121.983 131.993ZM107.871 141.092C105.871 142.079 103.822 142.978 101.725 143.781L102.441 145.649C104.596 144.823 106.702 143.9 108.757 142.885L107.871 141.092ZM101.724 143.782C93.5784 146.908 84.7363 148.621 75.5 148.621V150.621C84.9855 150.621 94.0701 148.861 102.441 145.649L101.724 143.782ZM75.5 148.621C66.5864 148.621 58.042 147.024 50.135 144.104L49.4421 145.98C57.5671 148.981 66.3459 150.621 75.5 150.621V148.621ZM50.1343 144.104C46.8889 142.908 43.7517 141.487 40.7394 139.86L39.7888 141.619C42.8837 143.291 46.1073 144.752 49.4428 145.981L50.1343 144.104ZM40.7398 139.86C40.2959 139.62 39.8564 139.378 39.4208 139.131L38.4345 140.871C38.8843 141.126 39.3357 141.374 39.7884 141.619L40.7398 139.86ZM39.4206 139.131C37.1226 137.829 34.9003 136.407 32.7674 134.872L31.5991 136.496C33.7915 138.074 36.0748 139.534 38.4347 140.871L39.4206 139.131ZM32.7676 134.873C32.734 134.848 32.6996 134.823 32.6634 134.797C32.6277 134.771 32.5902 134.744 32.5533 134.717L31.3847 136.341C31.4182 136.365 31.4527 136.39 31.4889 136.416C31.5246 136.442 31.562 136.469 31.599 136.496L32.7676 134.873ZM32.5542 134.718C31.0354 133.622 29.5591 132.468 28.1335 131.257L26.8383 132.781C28.3056 134.028 29.8237 135.214 31.3838 136.34L32.5542 134.718ZM28.1317 131.255C27.6073 130.812 27.0912 130.365 26.585 129.909L25.2458 131.394C25.7716 131.868 26.3044 132.329 26.8401 132.782L28.1317 131.255ZM26.5799 129.904C25.7522 129.168 24.941 128.409 24.1491 127.631L22.7475 129.058C23.5628 129.859 24.3982 130.64 25.2509 131.398L26.5799 129.904ZM24.1481 127.63C22.6461 126.159 21.2106 124.626 19.8389 123.032L18.3228 124.336C19.7311 125.973 21.2055 127.548 22.7485 129.059L24.1481 127.63ZM19.8387 123.032C8.76381 110.168 2.06391 93.4462 2.06391 75.1851H0.0639098C0.0639098 93.9446 6.94862 111.125 18.323 124.337L19.8387 123.032ZM2.06391 75.1851C2.06391 34.6932 35.0081 1.74897 75.5 1.74897V-0.251032C33.9036 -0.251032 0.0639098 33.5886 0.0639098 75.1851H2.06391ZM75.5 1.74897C115.992 1.74897 148.936 34.6932 148.936 75.1851H150.936C150.936 33.5886 117.096 -0.251032 75.5 -0.251032V1.74897ZM148.936 75.1851C148.936 93.7272 142.03 110.683 130.652 123.619L132.154 124.939C143.84 111.654 150.936 94.2332 150.936 75.1851H148.936Z" fill="#E1581D" mask="url(#path-7-inside-1_111_1882)"/>
</g>
<rect x="1" y="0.685059" width="149" height="149" rx="74.5" stroke="#E9E9E9"/>
<defs>
<clipPath id="clip0_111_1882">
<rect x="0.5" y="0.185059" width="150" height="150" rx="75" fill="white"/>
</clipPath>
</defs>
</svg>
