<svg width="55" height="54" viewBox="0 0 55 54" fill="none" xmlns="http://www.w3.org/2000/svg">
<path fill-rule="evenodd" clip-rule="evenodd" d="M32.7673 12.5253C32.7673 15.274 30.539 17.5023 27.7903 17.5023C25.0416 17.5023 22.8134 15.274 22.8134 12.5253C22.8134 9.7766 25.0416 7.54834 27.7903 7.54834C30.539 7.54834 32.7673 9.7766 32.7673 12.5253ZM30.7765 12.5253C30.7765 14.1746 29.4396 15.5115 27.7903 15.5115C26.141 15.5115 24.8041 14.1746 24.8041 12.5253C24.8041 10.8761 26.141 9.53912 27.7903 9.53912C29.4396 9.53912 30.7765 10.8761 30.7765 12.5253Z" fill="#1A62FF"/>
<path d="M20.8224 44.3779V37.4102H22.8132V44.3779C22.8132 44.9277 23.2588 45.3733 23.8086 45.3733H23.8949C24.4097 45.3733 24.8396 44.9807 24.8862 44.468L25.5278 37.4102H27.5268L26.8688 44.6482C26.8636 44.7052 26.8568 44.7617 26.8486 44.8176C26.8305 44.94 26.805 45.0598 26.7726 45.1767C26.4209 46.4481 25.257 47.3641 23.8949 47.3641H23.8086C22.1593 47.3641 20.8224 46.0272 20.8224 44.3779Z" fill="#1A62FF"/>
<path d="M30.6939 44.468L30.0523 37.4102H28.0532L28.7113 44.6482C28.7165 44.7052 28.7232 44.7617 28.7315 44.8176C28.7496 44.94 28.7751 45.0598 28.8074 45.1767C29.1592 46.4481 30.3231 47.3641 31.6852 47.3641H31.7716C33.4208 47.3641 34.7578 46.0272 34.7578 44.3779V37.4102H32.767V44.3779C32.767 44.9277 32.3213 45.3733 31.7716 45.3733H31.6852C31.1704 45.3733 30.7405 44.9807 30.6939 44.468Z" fill="#1A62FF"/>
<path fill-rule="evenodd" clip-rule="evenodd" d="M14.8503 18.4977C14.3005 18.4977 13.8549 18.9433 13.8549 19.4931V34.424C13.8549 34.9737 14.3005 35.4193 14.8503 35.4193H40.7304C41.2802 35.4193 41.7258 34.9737 41.7258 34.424V19.4931C41.7258 18.9433 41.2802 18.4977 40.7304 18.4977H14.8503ZM15.8456 20.4885V33.4286H23.3111C23.3111 32.8735 23.569 32.3906 23.8363 32.0356C24.116 31.6643 24.4852 31.3266 24.8832 31.0412C25.4265 30.6517 26.0968 30.308 26.795 30.1117V27.9539H25.9986C25.3987 27.9539 24.5588 28.3164 23.7523 28.8052C23.3746 29.0341 23.046 29.2645 22.8118 29.4381C22.6951 29.5244 22.6032 29.5958 22.5416 29.6445C22.5109 29.6688 22.4879 29.6874 22.4732 29.6993L22.4576 29.7121L22.4549 29.7142C22.4549 29.7142 22.4552 29.714 21.818 28.9493C21.1807 28.1846 21.181 28.1843 21.181 28.1843L21.1823 28.1833L21.1847 28.1814L21.1922 28.1752L21.2174 28.1546C21.2386 28.1374 21.2685 28.1132 21.3067 28.083C21.3827 28.0229 21.4914 27.9387 21.6268 27.8383C21.8964 27.6387 22.2771 27.3714 22.7205 27.1026C23.5564 26.596 24.8069 25.9631 25.9986 25.9631H26.795V23.9723H26.2973C25.7308 23.9723 24.9942 24.1706 24.3355 24.4101C24.0198 24.525 23.7461 24.6401 23.5521 24.7264C23.4553 24.7693 23.3793 24.8048 23.3286 24.8289C23.3033 24.8408 23.2844 24.85 23.2726 24.8557L23.26 24.8619L23.2583 24.8627C23.2583 24.8627 23.2585 24.8626 22.8134 23.9723C22.3682 23.0821 22.3685 23.0819 22.3685 23.0819L22.3718 23.0803L22.3783 23.0771L22.3997 23.0665C22.4177 23.0578 22.443 23.0455 22.4751 23.0303C22.5392 22.9999 22.6302 22.9575 22.7435 22.9072C22.9694 22.8068 23.2867 22.6732 23.6553 22.5392C24.3653 22.281 25.3707 21.9816 26.2973 21.9816H26.795V20.4885H15.8456ZM28.7857 27.9539H29.8807C30.6261 27.9539 31.3923 28.3185 32.0338 28.7687C32.3428 28.9855 32.5966 29.2037 32.7721 29.3671C32.8594 29.4482 32.926 29.5146 32.969 29.5587C32.9904 29.5807 33.0059 29.597 33.015 29.6068L33.0235 29.6159C33.0235 29.6159 33.0228 29.6152 33.7627 28.9493C34.5026 28.2834 34.5022 28.283 34.5022 28.283L34.5007 28.2814L34.4982 28.2786L34.4911 28.2708L34.4691 28.2471C34.451 28.2277 34.4259 28.2013 34.3944 28.1689C34.3312 28.1041 34.2414 28.0149 34.128 27.9094C33.9024 27.6995 33.5776 27.42 33.1773 27.1391C32.4004 26.5939 31.2255 25.9631 29.8807 25.9631H28.7857V23.9723H29.5323C30.2234 23.9723 30.8953 24.1725 31.4168 24.392C31.6727 24.4998 31.8806 24.6072 32.0217 24.6859C32.0919 24.7253 32.1449 24.7569 32.178 24.7773C32.1947 24.7875 32.2062 24.7948 32.2126 24.7989L32.2156 24.8008C32.2156 24.8008 32.2152 24.8006 32.7673 23.9723C33.3195 23.1441 33.319 23.1438 33.319 23.1438L33.3175 23.1428L33.3149 23.1411L33.308 23.1366L33.2877 23.1235C33.2713 23.1129 33.2491 23.0989 33.2214 23.0819C33.1662 23.0478 33.0888 23.0017 32.9919 22.9477C32.7987 22.8398 32.5243 22.6983 32.1893 22.5573C31.5287 22.2791 30.5831 21.9816 29.5323 21.9816H28.7857V20.4885H39.7351V33.4286H32.2696C32.2696 32.869 32.0032 32.3786 31.7362 32.0226C31.4537 31.646 31.0805 31.299 30.6777 31.0061C30.1469 30.6201 29.4814 30.2689 28.7857 30.0831V27.9539ZM30.2718 33.4286C30.2586 33.3957 30.2248 33.3254 30.1436 33.217C30.006 33.0337 29.7882 32.8208 29.5067 32.616C28.9329 32.1988 28.2818 31.9471 27.8222 31.9359C27.2804 31.9817 26.6011 32.2592 26.0433 32.6591C25.7654 32.8584 25.5563 33.061 25.4265 33.2333C25.3512 33.3333 25.3202 33.3981 25.3081 33.4286H30.2718Z" fill="#1A62FF"/>
</svg>
