<svg width="16" height="16" viewBox="0 0 16 16" fill="none" xmlns="http://www.w3.org/2000/svg">
<path d="M12.6335 9.91157C12.306 9.5705 11.9108 9.38814 11.4921 9.38814C11.0767 9.38814 10.6783 9.56712 10.3372 9.90819L9.27008 10.9719C9.18228 10.9247 9.09448 10.8808 9.01006 10.8369C8.88849 10.7761 8.77367 10.7187 8.67574 10.6579C7.67617 10.023 6.76777 9.19566 5.89652 8.12517C5.4744 7.59161 5.19074 7.14248 4.98475 6.68659C5.26166 6.43332 5.5183 6.16992 5.7682 5.91665C5.86275 5.8221 5.95731 5.72417 6.05186 5.62961C6.76102 4.92045 6.76102 4.00193 6.05186 3.29277L5.12996 2.37087C5.02527 2.26618 4.91721 2.15812 4.8159 2.05006C4.61329 1.84069 4.40054 1.62456 4.18104 1.42195C3.85347 1.09776 3.46175 0.925537 3.04976 0.925537C2.63778 0.925537 2.2393 1.09776 1.9016 1.42195C1.89823 1.42532 1.89823 1.42532 1.89485 1.4287L0.746691 2.58699C0.314443 3.01924 0.0679266 3.54604 0.0138956 4.15727C-0.0671509 5.14333 0.223266 6.06186 0.446144 6.66295C0.993208 8.13868 1.81043 9.50634 3.0295 10.9719C4.5086 12.7381 6.28825 14.1327 8.32116 15.1154C9.09786 15.4835 10.1346 15.9191 11.2929 15.9934C11.3638 15.9968 11.4381 16.0002 11.5056 16.0002C12.2857 16.0002 12.9408 15.7199 13.4541 15.1627C13.4575 15.156 13.4642 15.1526 13.4676 15.1458C13.6432 14.9331 13.8458 14.7406 14.0586 14.5346C14.2038 14.3961 14.3524 14.2509 14.4976 14.099C14.8319 13.7511 15.0075 13.3459 15.0075 12.9306C15.0075 12.5118 14.8285 12.11 14.4875 11.7723L12.6335 9.91157ZM13.8425 13.4675C13.8391 13.4675 13.8391 13.4709 13.8425 13.4675C13.7108 13.6093 13.5757 13.7376 13.4305 13.8795C13.211 14.0888 12.9881 14.3083 12.7787 14.5549C12.4377 14.9196 12.0358 15.0918 11.509 15.0918C11.4583 15.0918 11.4043 15.0918 11.3537 15.0884C10.3507 15.0243 9.41867 14.6325 8.71964 14.2982C6.8083 13.3729 5.12996 12.0593 3.73528 10.3945C2.58375 9.00655 1.8138 7.72331 1.30389 6.34552C0.989831 5.50466 0.875015 4.84954 0.925669 4.23156C0.959438 3.83646 1.1114 3.50889 1.39169 3.22861L2.54322 2.07707C2.70869 1.92173 2.88429 1.83731 3.05652 1.83731C3.26926 1.83731 3.44149 1.96563 3.54955 2.0737C3.55293 2.07707 3.5563 2.08045 3.55968 2.08383C3.76567 2.27631 3.96154 2.47555 4.16753 2.6883C4.27221 2.79636 4.38028 2.90442 4.48834 3.01586L5.41024 3.93777C5.7682 4.29572 5.7682 4.62666 5.41024 4.98462C5.31231 5.08255 5.21776 5.18048 5.11983 5.27503C4.83616 5.56545 4.56601 5.8356 4.27221 6.09901C4.26546 6.10576 4.25871 6.10914 4.25533 6.11589C3.96491 6.40631 4.01894 6.68997 4.07973 6.88246C4.08311 6.89259 4.08648 6.90272 4.08986 6.91285C4.32962 7.49368 4.66732 8.04075 5.18061 8.69249L5.18399 8.69587C6.11602 9.84403 7.09871 10.7389 8.18271 11.4244C8.32116 11.5122 8.46299 11.5832 8.59807 11.6507C8.71964 11.7115 8.83446 11.7689 8.93239 11.8297C8.9459 11.8364 8.9594 11.8466 8.97291 11.8533C9.08773 11.9107 9.19579 11.9377 9.30723 11.9377C9.58751 11.9377 9.76312 11.7621 9.82052 11.7047L10.9754 10.5498C11.0903 10.435 11.2726 10.2965 11.4854 10.2965C11.6947 10.2965 11.8669 10.4282 11.9716 10.5431C11.975 10.5464 11.975 10.5464 11.9784 10.5498L13.8391 12.4105C14.1869 12.755 14.1869 13.1095 13.8425 13.4675Z" fill="#1071B8"/>
<path d="M8.63502 3.80574C9.51978 3.95432 10.3235 4.37306 10.9651 5.01468C11.6067 5.6563 12.0221 6.46001 12.174 7.34477C12.2112 7.56764 12.4037 7.72298 12.6232 7.72298C12.6502 7.72298 12.6738 7.71961 12.7009 7.71623C12.9507 7.67571 13.1162 7.43932 13.0757 7.18943C12.8933 6.11894 12.3868 5.143 11.6135 4.36968C10.8402 3.59637 9.86422 3.08983 8.79374 2.90747C8.54384 2.86695 8.31083 3.03242 8.26693 3.27893C8.22303 3.52545 8.38513 3.76521 8.63502 3.80574Z" fill="#1071B8"/>
<path d="M15.9697 7.058C15.6692 5.29523 14.8385 3.69119 13.562 2.41471C12.2855 1.13822 10.6814 0.307498 8.91869 0.00695024C8.67217 -0.03695 8.43916 0.131897 8.39526 0.378413C8.35474 0.628307 8.52021 0.861315 8.7701 0.905216C10.3438 1.17199 11.779 1.9183 12.9204 3.05632C14.0618 4.19773 14.8047 5.63293 15.0715 7.20658C15.1086 7.42946 15.3011 7.5848 15.5206 7.5848C15.5476 7.5848 15.5713 7.58142 15.5983 7.57804C15.8448 7.5409 16.0136 7.30451 15.9697 7.058Z" fill="#1071B8"/>
</svg>
