<svg width="30" height="26" viewBox="0 0 30 26" fill="none" xmlns="http://www.w3.org/2000/svg">
<path d="M9.66663 5.7037H5.66663C3.45749 5.7037 1.66663 7.49456 1.66663 9.7037V20.6667C1.66663 22.8758 3.45749 24.6667 5.66663 24.6667H24.3333C26.5424 24.6667 28.3333 22.8758 28.3333 20.6667V9.7037C28.3333 7.49456 26.5424 5.7037 24.3333 5.7037H20.3333M9.66663 5.7037L9.78392 4.2123C9.82946 3.63327 9.97758 3.05013 10.3661 2.61841C11.1156 1.78565 12.1921 1.29437 13.3393 1.29437H16.6606C17.8078 1.29437 18.8843 1.78565 19.6338 2.61841C20.0223 3.05013 20.1705 3.63327 20.216 4.2123L20.3333 5.7037M9.66663 5.7037H20.3333M23.0133 10H23M19 15.3333C19 17.5425 17.2091 19.3333 15 19.3333C12.7908 19.3333 11 17.5425 11 15.3333C11 13.1242 12.7908 11.3333 15 11.3333C17.2091 11.3333 19 13.1242 19 15.3333Z" stroke="white" stroke-width="1.5" stroke-linecap="round" stroke-linejoin="round"/>
</svg>
