<svg width="18" height="10" viewBox="0 0 18 10" fill="none" xmlns="http://www.w3.org/2000/svg">
<path d="M1.24113 0.587214C1.10516 0.269947 0.737733 0.122972 0.420466 0.258947C0.103199 0.394922 -0.0437757 0.762348 0.0921993 1.07961L1.24113 0.587214ZM6.53454 6.44816C6.7228 6.15891 6.64087 5.77175 6.35154 5.5835C6.06222 5.39525 5.67507 5.47716 5.48681 5.7665L6.53454 6.44816ZM4.30947 7.57591C4.12121 7.86516 4.20314 8.25233 4.49247 8.44058C4.78179 8.62883 5.16894 8.54692 5.3572 8.25758L4.30947 7.57591ZM17.9078 1.07961C18.0437 0.762348 17.8968 0.394922 17.5795 0.258947C17.2622 0.122972 16.8948 0.269947 16.7588 0.587214L17.9078 1.07961ZM15.6414 5.96608C15.8855 6.21016 16.2812 6.21016 16.5252 5.96608C16.7693 5.722 16.7693 5.32625 16.5252 5.08216L15.6414 5.96608ZM8.375 8.75008C8.375 9.09525 8.65483 9.37508 9 9.37508C9.34517 9.37508 9.625 9.09525 9.625 8.75008H8.375ZM12.6428 8.25758C12.8311 8.54692 13.2182 8.62883 13.5075 8.44058C13.7968 8.25233 13.8787 7.86516 13.6905 7.57591L12.6428 8.25758ZM3.60861 4.71608C3.85268 4.472 3.85268 4.07625 3.60861 3.83216C3.36453 3.58808 2.9688 3.58808 2.72472 3.83216L3.60861 4.71608ZM1.47472 5.08216C1.23065 5.32625 1.23065 5.722 1.47472 5.96608C1.7188 6.21016 2.11453 6.21016 2.35861 5.96608L1.47472 5.08216ZM9 6.04175C6.31342 6.04175 4.38444 4.70391 3.10383 3.3248C2.46371 2.63544 1.99437 1.94411 1.68549 1.4252C1.53141 1.16633 1.41822 0.952014 1.3445 0.804556C1.30766 0.730881 1.28074 0.674039 1.26356 0.636839C1.25497 0.618248 1.24882 0.604581 1.24509 0.596189C1.24322 0.591998 1.24179 0.588722 1.24113 0.587214C1.24113 0.587214 1.24113 0.587214 0.666666 0.833414C0.0921993 1.07961 0.0921993 1.07961 0.0921993 1.07961L0.0927243 1.08083C0.0927243 1.08083 0.093191 1.08191 0.0934827 1.08258C0.0940577 1.08393 0.0947993 1.08563 0.0956909 1.08768C0.0974826 1.09177 0.0998993 1.09726 0.102941 1.10411C0.109024 1.11779 0.117624 1.13687 0.128774 1.16101C0.151058 1.20926 0.183549 1.27775 0.226466 1.36357C0.312241 1.53513 0.439949 1.77654 0.611383 2.06455C0.953541 2.63938 1.47379 3.40641 2.18783 4.17533C3.61556 5.71291 5.85324 7.29175 9 7.29175V6.04175ZM11.7604 5.52575C10.9517 5.84408 10.0347 6.04175 9 6.04175V7.29175C10.1985 7.29175 11.2705 7.06191 12.2182 6.68891L11.7604 5.52575ZM5.48681 5.7665L4.30947 7.57591L5.3572 8.25758L6.53454 6.44816L5.48681 5.7665ZM17.3333 0.833414C16.7588 0.587214 16.7588 0.587214 16.7588 0.587214L16.7592 0.586414C16.7592 0.586414 16.7589 0.587181 16.7584 0.588214C16.7575 0.590273 16.7558 0.594039 16.7534 0.599448C16.7486 0.610273 16.7407 0.627656 16.7298 0.651122C16.7079 0.698056 16.6738 0.769206 16.6272 0.860639C16.5338 1.04364 16.3908 1.30701 16.1962 1.61941C15.8057 2.24605 15.2136 3.06006 14.4056 3.81841L15.2611 4.72983C16.1686 3.878 16.8264 2.97164 17.2571 2.28046C17.473 1.93398 17.6333 1.63908 17.7407 1.42854C17.7944 1.32321 17.835 1.23877 17.8627 1.17931C17.8766 1.14957 17.8872 1.12606 17.8947 1.10928C17.8985 1.10089 17.9015 1.09418 17.9037 1.08921C17.9047 1.08673 17.9056 1.08469 17.9063 1.08308C17.9067 1.08228 17.9072 1.08101 17.9072 1.08101L17.9078 1.07961C17.9078 1.07961 17.9078 1.07961 17.3333 0.833414ZM14.4056 3.81841C13.6897 4.49025 12.8116 5.112 11.7604 5.52575L12.2182 6.68891C13.4462 6.20558 14.4555 5.48591 15.2611 4.72983L14.4056 3.81841ZM14.3914 4.71608L15.6414 5.96608L16.5252 5.08216L15.2752 3.83216L14.3914 4.71608ZM8.375 6.66675V8.75008H9.625V6.66675H8.375ZM11.4655 6.44816L12.6428 8.25758L13.6905 7.57591L12.5132 5.7665L11.4655 6.44816ZM2.72472 3.83216L1.47472 5.08216L2.35861 5.96608L3.60861 4.71608L2.72472 3.83216Z" fill="#1071B8"/>
</svg>
