<svg width="43" height="48" viewBox="0 0 43 48" fill="none" xmlns="http://www.w3.org/2000/svg">
<path d="M14.2884 9.85549L15.0372 10.9363C15.3407 10.7305 15.544 10.4092 15.5985 10.0493C15.6529 9.68935 15.5534 9.32313 15.324 9.03867L14.2884 9.85549ZM11.0973 5.89707L10.3833 4.79342C10.0672 4.99345 9.85182 5.31676 9.79049 5.68284C9.72903 6.04906 9.82758 6.42379 10.0615 6.71402L11.0973 5.89707ZM15.5648 3.06964L16.6004 2.25278C16.1775 1.72814 15.4223 1.60433 14.8508 1.96597L15.5648 3.06964ZM18.7558 7.02809L17.7202 7.8449C18.1022 8.31895 18.7631 8.47173 19.318 8.21452L18.7558 7.02809ZM22.4151 5.33157L22.9773 6.518C23.4425 6.30233 23.7398 5.83981 23.7398 5.33157H22.4151ZM22.4151 1.31031L22.415 5.24814e-05C21.6835 6.5584e-05 21.0905 0.586681 21.0905 1.31031H22.4151ZM28.1165 1.31026H29.4411C29.4411 0.96275 29.3015 0.629487 29.0531 0.383761C28.8046 0.138036 28.4678 0 28.1165 0V1.31026ZM28.1165 5.33157H26.7918C26.7918 5.81046 27.0559 6.2511 27.4806 6.48105L28.1165 5.33157ZM7.12329 18.3821L5.98104 19.0455C6.16544 19.3563 6.47117 19.5781 6.82617 19.659C7.18118 19.7398 7.55407 19.6725 7.85742 19.4728L7.12329 18.3821ZM1.82466 14.8879L0.523149 14.6441C0.456546 14.992 0.535045 15.3516 0.740791 15.6412C0.94655 15.9309 1.26203 16.1259 1.61542 16.1818L1.82466 14.8879ZM3.01092 8.69368L3.38485 7.43675C3.02601 7.33233 2.63921 7.38277 2.32002 7.57577C2.00084 7.76877 1.77904 8.08625 1.70942 8.44985L3.01092 8.69368ZM12.4219 15.7654L12.9132 16.9821C13.4753 16.7601 13.8136 16.1897 13.7355 15.5961L12.4219 15.7654ZM20.5761 17.5635L19.3884 16.9832L18.6895 18.3826L20.2042 18.8209L20.5761 17.5635ZM41.1274 7.59385L42.4511 7.64207L42.5 6.32972L41.1731 6.28438L41.1274 7.59385ZM40.8957 13.8198L40.85 15.1293L42.1708 15.1743L42.2194 13.868L40.8957 13.8198ZM7.6056 16.7835C4.94993 19.1071 3.95485 22.2812 4.06731 25.585C4.17871 28.8627 5.37369 32.3298 7.16635 35.4668C8.96272 38.6102 11.4053 41.5037 14.1111 43.625C16.7983 45.7316 19.8676 47.1692 22.8998 47.1692V44.5487C20.6896 44.5487 18.189 43.478 15.7568 41.5713C13.3431 39.679 11.1166 37.0539 9.47271 34.1773C7.8251 31.294 6.80842 28.2392 6.71504 25.4968C6.62271 22.7804 7.42969 20.4361 9.36104 18.7462L7.6056 16.7835ZM22.8998 47.1692C25.9244 47.1692 29.0723 45.7391 31.8598 43.6218C34.6685 41.4886 37.2404 38.5626 39.1257 35.3419C42.8302 29.0137 44.1824 20.8761 38.1941 15.6367L36.4388 17.5995C40.9557 21.5515 40.342 28.0345 36.833 34.0288C35.1116 36.9695 32.7651 39.6303 30.2463 41.5435C27.7062 43.4727 25.1177 44.5487 22.8998 44.5487V47.1692ZM38.1941 15.6367C37.4337 14.9715 36.8412 14.6257 36.1938 14.3021C35.5694 13.9899 34.9912 13.7407 34.0574 13.1961L32.7117 15.4533C33.744 16.0555 34.4764 16.3796 34.9986 16.6408C35.498 16.8904 35.8884 17.118 36.4388 17.5995L38.1941 15.6367ZM21.4444 16.4431C19.471 15.8041 16.9115 15.18 14.4464 15.0403C12.0433 14.904 9.40542 15.2087 7.6056 16.7835L9.36104 18.7462C10.348 17.8826 12.0749 17.5306 14.2947 17.6565C16.4525 17.7789 18.7742 18.3357 20.62 18.9335L21.4444 16.4431ZM15.324 9.03867L12.133 5.08021L10.0615 6.71402L13.2526 10.6724L15.324 9.03867ZM11.8113 7.0007L16.2787 4.17331L14.8508 1.96597L10.3833 4.79342L11.8113 7.0007ZM14.5291 3.88652L17.7202 7.8449L19.7915 6.21114L16.6004 2.25278L14.5291 3.88652ZM19.318 8.21452L22.9773 6.518L21.853 4.14519L18.1936 5.84165L19.318 8.21452ZM23.7398 5.33157V1.31031H21.0905V5.33157H23.7398ZM22.4151 2.62057L28.1165 2.62051V0L22.415 5.24814e-05L22.4151 2.62057ZM26.7918 1.31026V5.33157H29.4411V1.31026H26.7918ZM28.1165 5.33157C27.4806 6.48105 27.4806 6.48105 27.4806 6.48105L27.4786 6.48L27.4773 6.47922L27.4761 6.47856C27.4761 6.47856 27.478 6.47948 27.4806 6.48105C27.4862 6.4842 27.4968 6.49022 27.5128 6.49966C27.5451 6.51853 27.5976 6.54984 27.6667 6.59374C27.8053 6.68178 28.0092 6.81884 28.2504 7.00424C28.7365 7.37779 29.3558 7.93295 29.9045 8.66224L32.0298 7.09766C31.302 6.13043 30.496 5.41136 29.8757 4.93485C29.5641 4.69528 29.2945 4.5133 29.0979 4.38853C28.9996 4.32606 28.9191 4.27767 28.8603 4.24332C28.8309 4.22614 28.8069 4.21245 28.7887 4.20225C28.7796 4.19714 28.772 4.19291 28.7659 4.18956C28.7629 4.18787 28.7603 4.1864 28.7579 4.18516C28.7568 4.18454 28.7548 4.18345 28.7548 4.18345L28.7535 4.18272C28.7535 4.18272 28.7522 4.18206 28.1165 5.33157ZM13.035 13.9658C13.3297 12.9269 13.8496 12.1539 14.2966 11.6406C14.5197 11.3846 14.721 11.1972 14.8598 11.0786C14.9291 11.0194 14.9821 10.978 15.0136 10.9541C15.0294 10.9422 15.0397 10.9347 15.0438 10.9317C15.0459 10.9303 15.0465 10.9299 15.0454 10.9307C15.0454 10.9307 15.044 10.9317 15.0425 10.9326L15.0402 10.9342L15.0388 10.9353C15.0388 10.9353 15.0372 10.9363 14.2884 9.85549C13.5394 8.77466 13.5386 8.77531 13.5386 8.77531L13.5358 8.77715C13.5345 8.77806 13.533 8.77911 13.5315 8.78016C13.5284 8.78226 13.5248 8.78475 13.5209 8.7875C13.5129 8.79313 13.5031 8.79994 13.4917 8.80807C13.4691 8.82432 13.4398 8.84567 13.4046 8.87227C13.3342 8.92547 13.24 8.99976 13.1284 9.09515C12.9052 9.28579 12.6088 9.56343 12.2893 9.93043C11.6512 10.6631 10.9068 11.7685 10.4842 13.2578L13.035 13.9658ZM7.12329 18.3821C8.26555 17.7187 8.26502 17.7178 8.26502 17.7178L8.26316 17.7147C8.26224 17.7131 8.26118 17.7114 8.25998 17.7094C8.25773 17.7056 8.25495 17.701 8.25177 17.6958C8.24541 17.6853 8.2372 17.6721 8.22713 17.6561C8.20713 17.6244 8.17984 17.5819 8.14527 17.5304C8.07612 17.4275 7.97757 17.2873 7.84907 17.1207C7.59289 16.7884 7.21337 16.3456 6.70696 15.8833C5.69717 14.9616 4.14308 13.9279 2.03391 13.5942L1.61542 16.1818C3.06501 16.4111 4.16017 17.1245 4.91006 17.8091C5.28361 18.1499 5.56139 18.475 5.7426 18.7101C5.83295 18.8271 5.89799 18.9202 5.93799 18.9797C5.95786 19.0095 5.9715 19.0307 5.97866 19.0421C5.98223 19.0477 5.98462 19.0517 5.98462 19.0517C5.98462 19.0517 5.98528 19.0527 5.98462 19.0517L5.98276 19.0486L5.98197 19.0472C5.98197 19.0472 5.98104 19.0455 7.12329 18.3821ZM3.12618 15.1318L4.3125 8.93752L1.70942 8.44985L0.523149 14.6441L3.12618 15.1318ZM3.01092 8.69368C2.63696 9.95061 2.63649 9.95048 2.63649 9.95048C2.63649 9.95048 2.63741 9.95074 2.63875 9.95127C2.64144 9.95205 2.64619 9.95336 2.65295 9.95546C2.66646 9.95952 2.68796 9.96594 2.71694 9.97485C2.77493 9.99267 2.86276 10.0202 2.97632 10.0573C3.20363 10.1313 3.53294 10.2432 3.93167 10.3915C4.73229 10.6893 5.79639 11.1283 6.86949 11.6957C7.95068 12.2674 8.9908 12.9434 9.77844 13.6999C10.5718 14.462 11.0132 15.2118 11.1084 15.9346L13.7355 15.5961C13.5341 14.0664 12.6508 12.8061 11.6241 11.82C10.5915 10.8281 9.31587 10.0178 8.11851 9.38471C6.91294 8.74727 5.73558 8.263 4.86436 7.93884C4.42709 7.77611 4.06294 7.65229 3.80569 7.56844C3.67693 7.52638 3.57467 7.49441 3.50327 7.47239C3.46751 7.46139 3.43942 7.453 3.41955 7.44697C3.40962 7.44409 3.40167 7.44173 3.39584 7.44003C3.39293 7.43911 3.39068 7.43846 3.38882 7.43793L3.38644 7.43715C3.38644 7.43715 3.38485 7.43675 3.01092 8.69368ZM11.9306 14.5486C10.2189 15.2248 8.84667 15.9022 7.89716 16.4137C7.42214 16.6697 7.05203 16.8845 6.79743 17.0377C6.67013 17.1142 6.57158 17.1754 6.50309 17.2185C6.46891 17.2401 6.44216 17.2571 6.42321 17.2694C6.41368 17.2756 6.40599 17.2805 6.40043 17.2841C6.39751 17.2861 6.39526 17.2875 6.39341 17.2888L6.39089 17.2904L6.38957 17.2912C6.38957 17.2912 6.38917 17.2915 7.12329 18.3821C7.85742 19.4728 7.85742 19.4728 7.85742 19.4728C7.85941 19.4715 7.86378 19.4686 7.86961 19.4649C7.8814 19.4573 7.9006 19.445 7.9271 19.4282C7.98035 19.3948 8.06287 19.3434 8.17348 19.2769C8.39497 19.1438 8.72865 18.9497 9.16433 18.715C10.0362 18.2453 11.3133 17.6143 12.9132 16.9821L11.9306 14.5486ZM28.3829 19.4788C29.5935 17.5754 30.8743 16.5645 32.2976 15.9128L31.1848 13.5347C29.2761 14.4086 27.6112 15.7708 26.1403 18.0834L28.3829 19.4788ZM20.2042 18.8209C21.8477 19.2965 23.7643 20.0616 24.9679 20.5683L26.0054 18.1571C24.7815 17.6418 22.7474 16.8266 20.9481 16.3059L20.2042 18.8209ZM28.0959 8.22487C24.2196 9.99962 21.5888 12.5768 19.3884 16.9832L21.7638 18.1436C23.7268 14.2129 25.9409 12.0992 29.2089 10.603L28.0959 8.22487ZM41.1731 6.28438C36.202 6.11471 31.8321 6.51433 28.0959 8.22487L29.2089 10.603C32.3839 9.14939 36.2586 8.73876 41.0817 8.90332L41.1731 6.28438ZM42.2194 13.868L42.4511 7.64207L39.8037 7.54564L39.572 13.7716L42.2194 13.868ZM32.2976 15.9128C34.0164 15.126 36.2896 14.9736 40.85 15.1293L40.9414 12.5103C36.4645 12.3576 33.5611 12.4468 31.1848 13.5347L32.2976 15.9128ZM26.1403 18.0834C26.1178 18.1189 26.0842 18.1431 26.0516 18.154C26.0218 18.164 26.0088 18.1586 26.0054 18.1571L24.9679 20.5683C26.259 21.1119 27.6883 20.5705 28.3829 19.4788L26.1403 18.0834ZM22.7744 32.3475L23.3208 33.5967L25.7524 32.5561L25.2058 31.3069L22.7744 32.3475ZM23.215 33.1656L23.5859 38.5419L26.229 38.3635L25.8582 32.9871L23.215 33.1656ZM24.6893 34.378L30.3271 33.7306L30.0216 31.1275L24.3838 31.7749L24.6893 34.378ZM25.7908 18.4489L22.7063 25.0496L25.1111 26.1491L28.1956 19.5485L25.7908 18.4489ZM22.6327 25.2477L22.3521 26.244L24.9042 26.9473L25.1847 25.9509L22.6327 25.2477ZM23.3629 24.4055L17.5975 26.9845L18.6891 29.3722L24.4546 26.7932L23.3629 24.4055ZM18.447 26.903L12.7024 25.5643L12.0949 28.115L17.8395 29.4536L18.447 26.903ZM16.9115 27.6963L14.9524 32.5945L17.416 33.5584L19.3751 28.6603L16.9115 27.6963ZM25.2058 31.3069C24.6039 29.9306 24.4974 28.3918 24.9042 26.9473L22.3521 26.244C21.7825 28.2664 21.9315 30.4207 22.7744 32.3475L25.2058 31.3069Z" fill="#1A62FF"/>
</svg>
