<svg width="14" height="17" viewBox="0 0 14 17" fill="none" xmlns="http://www.w3.org/2000/svg">
<path d="M11.5664 2.78405C10.3436 1.56116 8.71765 0.887695 6.98825 0.887695C5.25885 0.887695 3.63289 1.56116 2.41003 2.78405C1.18714 4.00697 0.513672 5.63287 0.513672 7.36224C0.513672 10.8608 3.82161 13.7707 5.59876 15.3339C5.84573 15.5512 6.059 15.7388 6.22891 15.8975C6.44179 16.0964 6.71503 16.1958 6.98822 16.1958C7.26146 16.1958 7.53465 16.0964 7.74756 15.8975C7.91747 15.7388 8.13074 15.5512 8.37771 15.3339C10.1549 13.7706 13.4628 10.8608 13.4628 7.36224C13.4628 5.63287 12.7893 4.00697 11.5664 2.78405ZM7.78541 14.6607C7.53303 14.8827 7.3151 15.0744 7.13541 15.2422C7.05286 15.3193 6.92358 15.3193 6.841 15.2422C6.66134 15.0744 6.44337 14.8826 6.191 14.6606C4.52026 13.191 1.41034 10.4553 1.41034 7.36227C1.41034 4.28665 3.91253 1.78445 6.98819 1.78445C10.0638 1.78445 12.566 4.28665 12.566 7.36227C12.566 10.4553 9.45615 13.191 7.78541 14.6607Z" fill="#1071B8"/>
<path fill-rule="evenodd" clip-rule="evenodd" d="M6.98796 9.1065C8.05148 9.1065 8.91362 8.24435 8.91362 7.18083C8.91362 6.11732 8.05148 5.25517 6.98796 5.25517C5.92444 5.25517 5.0623 6.11732 5.0623 7.18083C5.0623 8.24435 5.92444 9.1065 6.98796 9.1065ZM6.98796 10.1258C8.61443 10.1258 9.93295 8.8073 9.93295 7.18083C9.93295 5.55436 8.61443 4.23584 6.98796 4.23584C5.36149 4.23584 4.04297 5.55436 4.04297 7.18083C4.04297 8.8073 5.36149 10.1258 6.98796 10.1258Z" fill="#1071B8"/>
</svg>
