<svg width="18" height="18" viewBox="0 0 18 18" fill="none" xmlns="http://www.w3.org/2000/svg">
<path fill-rule="evenodd" clip-rule="evenodd" d="M3.37499 7.37891V5.66675C3.37499 2.56015 5.89339 0.041748 8.99999 0.041748C12.1066 0.041748 14.625 2.56015 14.625 5.66675V7.37891C15.554 7.44833 16.1589 7.62341 16.6011 8.06566C17.3333 8.79791 17.3333 9.97641 17.3333 12.3334C17.3333 14.6904 17.3333 15.8689 16.6011 16.6012C15.8688 17.3334 14.6903 17.3334 12.3333 17.3334H5.66666C3.30963 17.3334 2.13112 17.3334 1.39889 16.6012C0.666656 15.8689 0.666656 14.6904 0.666656 12.3334C0.666656 9.97641 0.666656 8.79791 1.39889 8.06566C1.84108 7.62341 2.44603 7.44833 3.37499 7.37891ZM4.62499 5.66675C4.62499 3.25051 6.58375 1.29175 8.99999 1.29175C11.4162 1.29175 13.375 3.25051 13.375 5.66675V7.33641C13.0558 7.33341 12.7096 7.33341 12.3333 7.33341H5.66666C5.2904 7.33341 4.94416 7.33341 4.62499 7.33641V5.66675ZM10.6667 12.3334C10.6667 13.2539 9.92049 14.0001 8.99999 14.0001C8.07949 14.0001 7.33332 13.2539 7.33332 12.3334C7.33332 11.4129 8.07949 10.6667 8.99999 10.6667C9.92049 10.6667 10.6667 11.4129 10.6667 12.3334Z" fill="#1071B8"/>
</svg>
