<svg width="55" height="54" viewBox="0 0 55 54" fill="none" xmlns="http://www.w3.org/2000/svg">
<path fill-rule="evenodd" clip-rule="evenodd" d="M26.1421 7.95803C26.1421 7.95803 26.1421 7.95789 27.2158 7.95789H27.4049C27.4878 7.95789 27.5629 7.95789 27.6311 7.95789C28.2895 7.9579 28.2895 7.95803 28.2895 7.95803V23.5263C28.2895 25.027 28.8952 25.6115 29.3674 25.887C29.4201 25.9177 29.4731 25.9456 29.526 25.9711C29.5249 25.842 29.5235 25.7076 29.522 25.5683V25.5666C29.4814 21.7779 29.4024 14.3997 35.2419 14.3997C43.2415 14.3997 48.9555 42.3224 45.5272 45.1717C42.0987 48.0209 35.2419 46.3114 31.8135 42.8922C29.0456 40.1318 29.285 33.6815 29.4569 29.0512L29.457 29.0497C29.4674 28.7679 29.4777 28.493 29.487 28.2259C29.1377 28.1391 28.7146 27.9923 28.2854 27.7419C27.9028 27.5187 27.5352 27.2243 27.2158 26.846C26.8965 27.2243 26.529 27.5187 26.1463 27.7419C25.7171 27.9923 25.294 28.1391 24.9448 28.2259C24.954 28.4933 24.9642 28.7687 24.9747 29.0507C25.1466 33.6811 25.3862 40.1321 22.6182 42.8926C19.1897 46.3117 12.333 48.0212 8.90454 45.172C5.47612 42.3228 11.1902 14.4 19.1897 14.4C25.0294 14.4 24.9503 21.778 24.9098 25.5666C24.9095 25.5841 24.9093 25.6015 24.9091 25.6188C24.9078 25.7401 24.9066 25.8577 24.9057 25.9711C24.9586 25.9457 25.0117 25.9178 25.0644 25.887C25.5366 25.6115 26.1421 25.027 26.1421 23.5263V7.95803ZM35.2419 16.547C34.2175 16.547 33.6411 16.8697 33.2377 17.2849C32.7723 17.7639 32.3837 18.5344 32.1107 19.623C31.6331 21.5287 31.6533 23.7216 31.6698 25.4904C31.6726 25.7963 31.6752 26.0896 31.6752 26.3665C31.6752 27.1825 31.639 28.1596 31.6013 29.1761C31.5865 29.5764 31.5713 29.9827 31.5581 30.3877C31.5101 31.8642 31.4827 33.4101 31.554 34.9054C31.6256 36.4089 31.7942 37.7886 32.1089 38.944C32.4273 40.1129 32.8536 40.8968 33.3298 41.3718C34.7022 42.7403 36.8691 43.8459 39.0791 44.2745C41.2641 44.6982 43.023 44.3847 44.0531 43.6009C44.0585 43.5888 44.0644 43.5748 44.0709 43.5585C44.1345 43.3997 44.2116 43.1268 44.2743 42.7112C44.3998 41.8791 44.4323 40.7183 44.3477 39.2883C44.1795 36.4433 43.5665 32.834 42.5983 29.2819C41.6264 25.7162 40.3333 22.345 38.8675 19.9169C38.1339 18.7014 37.4105 17.8128 36.7397 17.249C36.0756 16.6909 35.5836 16.547 35.2419 16.547ZM19.1897 16.5474C20.2141 16.5474 20.7907 16.87 21.194 17.2852C21.6593 17.7643 22.048 18.5347 22.3209 19.6234C22.7986 21.5291 22.7783 23.7219 22.762 25.4907C22.7591 25.7967 22.7564 26.0899 22.7564 26.3668C22.7564 27.1828 22.7927 28.1599 22.8304 29.1765C22.8453 29.5765 22.8603 29.9832 22.8735 30.388C22.9216 31.8645 22.9489 33.4104 22.8777 34.9057C22.8061 36.4092 22.6375 37.7889 22.3227 38.9443C22.0044 40.1132 21.5781 40.8971 21.1018 41.3721C19.7296 42.7406 17.5627 43.8462 15.3526 44.2748C13.1676 44.6985 11.4087 44.385 10.3786 43.6012C10.3732 43.5892 10.3673 43.5751 10.3607 43.5588C10.2972 43.4 10.2201 43.1272 10.1574 42.7115C10.0319 41.8794 9.99931 40.7187 10.0839 39.2886C10.2522 36.4436 10.8652 32.8343 11.8334 29.2822C12.8054 25.7165 14.0983 22.3454 15.5641 19.9172C16.2979 18.7017 17.0211 17.8131 17.692 17.2493C18.356 16.6912 18.8481 16.5474 19.1897 16.5474Z" fill="#1A62FF"/>
</svg>
