<svg width="30" height="26" viewBox="0 0 30 26" fill="none" xmlns="http://www.w3.org/2000/svg">
<path d="M22.6043 8.59061C22.6043 3.84922 17.5487 0 11.306 0C5.05693 0 0 3.84922 0 8.59061C0 11.5103 1.92722 14.0759 4.85478 15.6306L2.04826 21.1654L8.13513 16.7992C9.14705 17.0249 10.2002 17.1852 11.306 17.1852C17.5499 17.1852 22.6043 13.3373 22.6043 8.59061ZM7.75531 9.52284H5.36847V7.04527H7.75531V9.52284ZM14.9983 7.04527H17.3851V9.52284H14.9983V7.04527ZM10.1834 7.04527H12.569V9.52284H10.1834V7.04527Z" fill="#1071B8"/>
<path d="M30.0025 13.9953C30.0025 10.8793 27.689 8.17605 24.2967 6.81641C24.4641 7.45614 24.5542 8.11995 24.5542 8.80377C24.5542 14.424 18.5677 18.9837 11.1703 18.9837C11.0789 18.9837 10.9939 18.9637 10.9038 18.9637C12.8542 20.8749 15.899 22.109 19.3273 22.109C20.3727 22.109 21.3653 21.9581 22.3205 21.747L28.0727 25.8674L25.4193 20.6439C28.1847 19.1734 30.0025 16.7506 30.0025 13.9953Z" fill="#1071B8"/>
</svg>
