<svg width="18" height="18" viewBox="0 0 18 18" fill="none" xmlns="http://www.w3.org/2000/svg">
<path d="M7.40083 10.5957L16.7407 1.25925M7.66632 11.0155L9.78414 15.2513C10.296 16.2748 10.5518 16.7866 10.8742 16.9239C11.154 17.043 11.4738 17.0214 11.7351 16.8658C12.0361 16.6866 12.221 16.145 12.5908 15.062L16.5923 3.34326C16.9146 2.39961 17.0757 1.92778 16.9654 1.61565C16.8694 1.34412 16.6559 1.13053 16.3844 1.03459C16.0722 0.924319 15.6004 1.08543 14.6567 1.40765L2.93795 5.40919C1.85494 5.779 1.31343 5.96391 1.13417 6.26495C0.978604 6.5262 0.957048 6.84601 1.07615 7.12573C1.21339 7.44811 1.72519 7.70407 2.74878 8.2158L6.98446 10.3337C7.15316 10.418 7.2375 10.4602 7.31049 10.5165C7.37539 10.5665 7.43352 10.6246 7.48345 10.6894C7.53986 10.7625 7.58198 10.8469 7.66632 11.0155Z" stroke="#777777" stroke-width="2" stroke-linecap="round" stroke-linejoin="round"/>
</svg>
