<svg width="25" height="26" viewBox="0 0 25 26" fill="none" xmlns="http://www.w3.org/2000/svg">
<path d="M13.8333 1H11.1666C9.69388 1 8.49997 2.19391 8.49997 3.66667C8.49997 4.73561 7.3428 5.4037 6.41706 4.86923C5.14162 4.13285 3.51071 4.56985 2.77433 5.8453L1.441 8.1547C0.704616 9.43015 1.14162 11.0611 2.41706 11.7974C3.34279 12.3319 3.34275 13.6681 2.41703 14.2026C1.14158 14.9389 0.704583 16.5698 1.44096 17.8453L2.7743 20.1547C3.51068 21.4301 5.14158 21.8671 6.41703 21.1308C7.34278 20.5963 8.49997 21.2644 8.49997 22.3333C8.49997 23.8061 9.69388 25 11.1666 25H13.8333C15.3061 25 16.5 23.8061 16.5 22.3333C16.5 21.2644 17.6571 20.5963 18.5829 21.1308C19.8583 21.8671 21.4892 21.4301 22.2256 20.1547L23.5589 17.8453C24.2953 16.5699 23.8583 14.9389 22.5829 14.2026C21.6571 13.6681 21.6571 12.3319 22.5828 11.7974C23.8583 11.061 24.2953 9.43014 23.5589 8.15469L22.2256 5.84529C21.4892 4.56984 19.8583 4.13284 18.5828 4.86922C17.6571 5.40368 16.5 4.7356 16.5 3.66667C16.5 2.19391 15.3061 1 13.8333 1Z" stroke="white" stroke-width="1.5" stroke-linecap="round" stroke-linejoin="round"/>
<path d="M15.1666 13C15.1666 14.4728 13.9727 15.6667 12.5 15.6667C11.0272 15.6667 9.8333 14.4728 9.8333 13C9.8333 11.5272 11.0272 10.3333 12.5 10.3333C13.9727 10.3333 15.1666 11.5272 15.1666 13Z" stroke="white" stroke-width="1.5" stroke-linecap="round" stroke-linejoin="round"/>
</svg>
