<svg width="57" height="56" viewBox="0 0 57 56" fill="none" xmlns="http://www.w3.org/2000/svg">
<path d="M28.5 0C13.1538 0 0.807678 12.3462 0.807678 27.6923C0.807678 43.0385 13.1538 55.3846 28.5 55.3846C43.8461 55.3846 56.1923 43.0385 56.1923 27.6923C56.1923 12.3462 43.8461 0 28.5 0ZM43.9615 20.7692L26.3077 38.6538C25.6154 39.3462 24.4615 39.3462 23.7692 38.6538L14.0769 28.8462C13.3846 28.1538 13.3846 27 14.0769 26.3077L16.6154 23.7692C17.3077 23.0769 18.4615 23.0769 19.1538 23.7692L24.2308 28.9615C24.6923 29.4231 25.5 29.4231 25.9615 28.9615L38.8846 15.5769C39.5769 14.8846 40.7308 14.8846 41.4231 15.5769L43.9615 18.1154C44.7692 18.8077 44.7692 19.9615 43.9615 20.7692Z" fill="#1071B8"/>
</svg>
