<svg width="16" height="16" viewBox="0 0 16 16" fill="none" xmlns="http://www.w3.org/2000/svg">
<path d="M13.7795 14.8115H4.59096C4.43941 14.8115 4.29406 14.7513 4.1869 14.6441C4.07974 14.5369 4.01953 14.3916 4.01953 14.24C4.01953 14.0885 4.07974 13.9431 4.1869 13.836C4.29406 13.7288 4.43941 13.6686 4.59096 13.6686H13.7795C14.0122 13.6884 14.2434 13.6163 14.4235 13.4675C14.6036 13.3188 14.7182 13.1054 14.7427 12.8732V6.24917C14.7181 6.017 14.6035 5.80372 14.4234 5.6551C14.2433 5.50649 14.0122 5.43436 13.7795 5.4542C13.628 5.4542 13.4826 5.394 13.3755 5.28684C13.2683 5.17967 13.2081 5.03433 13.2081 4.88277C13.2081 4.73122 13.2683 4.58588 13.3755 4.47871C13.4826 4.37155 13.628 4.31135 13.7795 4.31135C14.3154 4.29052 14.8377 4.48266 15.2323 4.84577C15.627 5.20888 15.8618 5.71343 15.8856 6.24917V12.8727C15.8619 13.4086 15.6272 13.9133 15.2325 14.2766C14.8379 14.6399 14.3155 14.8322 13.7795 14.8115ZM6.64216 5.4542H4.59096C4.43941 5.4542 4.29406 5.394 4.1869 5.28684C4.07974 5.17967 4.01953 5.03433 4.01953 4.88277C4.01953 4.73122 4.07974 4.58588 4.1869 4.47871C4.29406 4.37155 4.43941 4.31135 4.59096 4.31135H6.64216C6.79371 4.31135 6.93906 4.37155 7.04622 4.47871C7.15338 4.58588 7.21359 4.73122 7.21359 4.88277C7.21359 5.03433 7.15338 5.17967 7.04622 5.28684C6.93906 5.394 6.79371 5.4542 6.64216 5.4542Z" fill="#1071B8"/>
<path d="M3.24569 15.3852H2.03014C1.52235 15.3841 1.03567 15.1819 0.676608 14.8228C0.317545 14.4638 0.115345 13.9771 0.114258 13.4693V5.08759C0.115465 4.57988 0.317719 4.09331 0.676769 3.73435C1.03582 3.37538 1.52243 3.17325 2.03014 3.17216H3.24569C3.7534 3.17325 4.24001 3.37538 4.59906 3.73435C4.95811 4.09331 5.16036 4.57988 5.16157 5.08759V13.4693C5.16048 13.9771 4.95828 14.4638 4.59922 14.8228C4.24016 15.1819 3.75348 15.3841 3.24569 15.3852ZM2.03014 4.31502C1.82524 4.31514 1.62876 4.39656 1.48382 4.5414C1.33889 4.68625 1.25736 4.88268 1.25711 5.08759V13.4693C1.25724 13.6743 1.33872 13.8708 1.48366 14.0158C1.62861 14.1607 1.82516 14.2422 2.03014 14.2423H3.24569C3.45063 14.2421 3.64711 14.1606 3.79203 14.0156C3.93695 13.8707 4.01847 13.6742 4.01871 13.4693V5.08759C4.01835 4.88272 3.93678 4.68636 3.79187 4.54154C3.64697 4.39672 3.45055 4.31526 3.24569 4.31502H2.03014ZM13.1003 7.5941H6.805C6.65345 7.5941 6.5081 7.5339 6.40094 7.42673C6.29378 7.31957 6.23357 7.17423 6.23357 7.02267V1.18862C6.23357 1.03706 6.29378 0.891719 6.40094 0.784555C6.5081 0.677391 6.65345 0.617188 6.805 0.617188H13.1003C13.2519 0.617188 13.3972 0.677391 13.5044 0.784555C13.6115 0.891719 13.6717 1.03706 13.6717 1.18862V7.02267C13.6717 7.17423 13.6115 7.31957 13.5044 7.42673C13.3972 7.5339 13.2519 7.5941 13.1003 7.5941ZM7.37643 6.45124H12.5289V1.75776H7.37643V6.45124ZM7.59586 10.1326C7.74345 10.1267 7.88304 10.0639 7.98538 9.95741C8.08772 9.85089 8.14488 9.7089 8.14488 9.56119C8.14488 9.41347 8.08772 9.27149 7.98538 9.16497C7.88304 9.05845 7.74345 8.99566 7.59586 8.98976C7.44826 8.99566 7.30867 9.05845 7.20633 9.16497C7.10399 9.27149 7.04683 9.41347 7.04683 9.56119C7.04683 9.7089 7.10399 9.85089 7.20633 9.95741C7.30867 10.0639 7.44826 10.1267 7.59586 10.1326ZM9.95289 10.1326C10.1005 10.1267 10.2401 10.0639 10.3424 9.95741C10.4448 9.85089 10.5019 9.7089 10.5019 9.56119C10.5019 9.41347 10.4448 9.27149 10.3424 9.16497C10.2401 9.05845 10.1005 8.99566 9.95289 8.98976C9.80529 8.99566 9.6657 9.05845 9.56336 9.16497C9.46102 9.27149 9.40386 9.41347 9.40386 9.56119C9.40386 9.7089 9.46102 9.85089 9.56336 9.95741C9.6657 10.0639 9.80529 10.1267 9.95289 10.1326ZM12.3099 10.1326C12.4575 10.1267 12.5971 10.0639 12.6994 9.95741C12.8018 9.85089 12.8589 9.7089 12.8589 9.56119C12.8589 9.41347 12.8018 9.27149 12.6994 9.16497C12.5971 9.05845 12.4575 8.99566 12.3099 8.98976C12.1623 8.99566 12.0227 9.05845 11.9204 9.16497C11.818 9.27149 11.7609 9.41347 11.7609 9.56119C11.7609 9.7089 11.818 9.85089 11.9204 9.95741C12.0227 10.0639 12.1623 10.1267 12.3099 10.1326ZM7.59586 12.0458C7.74345 12.0399 7.88304 11.9771 7.98538 11.8705C8.08772 11.764 8.14488 11.622 8.14488 11.4743C8.14488 11.3266 8.08772 11.1846 7.98538 11.0781C7.88304 10.9716 7.74345 10.9088 7.59586 10.9029C7.44826 10.9088 7.30867 10.9716 7.20633 11.0781C7.10399 11.1846 7.04683 11.3266 7.04683 11.4743C7.04683 11.622 7.10399 11.764 7.20633 11.8705C7.30867 11.9771 7.44826 12.0399 7.59586 12.0458ZM9.95289 12.0458C10.1005 12.0399 10.2401 11.9771 10.3424 11.8705C10.4448 11.764 10.5019 11.622 10.5019 11.4743C10.5019 11.3266 10.4448 11.1846 10.3424 11.0781C10.2401 10.9716 10.1005 10.9088 9.95289 10.9029C9.80529 10.9088 9.6657 10.9716 9.56336 11.0781C9.46102 11.1846 9.40386 11.3266 9.40386 11.4743C9.40386 11.622 9.46102 11.764 9.56336 11.8705C9.6657 11.9771 9.80529 12.0399 9.95289 12.0458ZM12.3099 12.0458C12.4575 12.0399 12.5971 11.9771 12.6994 11.8705C12.8018 11.764 12.8589 11.622 12.8589 11.4743C12.8589 11.3266 12.8018 11.1846 12.6994 11.0781C12.5971 10.9716 12.4575 10.9088 12.3099 10.9029C12.1623 10.9088 12.0227 10.9716 11.9204 11.0781C11.818 11.1846 11.7609 11.3266 11.7609 11.4743C11.7609 11.622 11.818 11.764 11.9204 11.8705C12.0227 11.9771 12.1623 12.0399 12.3099 12.0458Z" fill="#1071B8"/>
</svg>
