<svg width="55" height="54" viewBox="0 0 55 54" fill="none" xmlns="http://www.w3.org/2000/svg">
<path fill-rule="evenodd" clip-rule="evenodd" d="M23.8273 7.38953C23.2202 7.38953 22.7281 7.88164 22.7281 8.48868C22.7281 9.09574 23.2202 9.58784 23.8273 9.58784H26.6851V12.3755C23.3837 12.6155 20.3797 13.9275 18.0197 15.9653L15.9839 13.9295L17.6798 12.2336C18.109 11.8044 18.109 11.1084 17.6798 10.6792C17.2506 10.2499 16.5546 10.2499 16.1254 10.6792L11.1792 15.6254C10.7499 16.0546 10.7499 16.7506 11.1792 17.1798C11.6084 17.609 12.3044 17.609 12.7336 17.1798L14.4295 15.4839L16.4653 17.5197C14.4275 19.8797 13.1155 22.8837 12.8755 26.1851H10.0878V23.3273C10.0878 22.7202 9.59574 22.2281 8.98868 22.2281C8.38164 22.2281 7.88953 22.7202 7.88953 23.3273V31.2412C7.88953 31.8483 8.38164 32.3404 8.98868 32.3404C9.59574 32.3404 10.0878 31.8483 10.0878 31.2412V28.3834H12.8755C13.1155 31.6848 14.4275 34.6888 16.4653 37.0488L14.4295 39.0846L12.7336 37.3887C12.3044 36.9595 11.6084 36.9595 11.1792 37.3887C10.7499 37.8179 10.7499 38.5139 11.1792 38.9431L16.1254 43.8893C16.5546 44.3186 17.2506 44.3186 17.6798 43.8893C18.109 43.4601 18.109 42.7641 17.6798 42.3349L15.9839 40.639L18.0197 38.6033C20.3797 40.641 23.3837 41.9531 26.6851 42.193V44.9807H23.8273C23.2202 44.9807 22.7281 45.4728 22.7281 46.0798C22.7281 46.6869 23.2202 47.179 23.8273 47.179H31.7412C32.3483 47.179 32.8404 46.6869 32.8404 46.0798C32.8404 45.4728 32.3483 44.9807 31.7412 44.9807H28.8834V42.193C32.1848 41.9531 35.1888 40.641 37.5488 38.6033L39.5846 40.639L37.8887 42.3349C37.4595 42.7641 37.4595 43.4601 37.8887 43.8893C38.3179 44.3186 39.0139 44.3186 39.4431 43.8893L44.3893 38.9431C44.8186 38.5139 44.8186 37.8179 44.3893 37.3887C43.9601 36.9595 43.2641 36.9595 42.8349 37.3887L41.139 39.0846L39.1033 37.0488C41.141 34.6888 42.4531 31.6848 42.693 28.3834H45.4807V31.2412C45.4807 31.8483 45.9728 32.3404 46.5798 32.3404C47.1869 32.3404 47.679 31.8483 47.679 31.2412V23.3273C47.679 22.7202 47.1869 22.2281 46.5798 22.2281C45.9728 22.2281 45.4807 22.7202 45.4807 23.3273V26.1851H42.693C42.4531 22.8837 41.141 19.8797 39.1033 17.5197L41.139 15.4839L42.8349 17.1798C43.2641 17.609 43.9601 17.609 44.3893 17.1798C44.8186 16.7506 44.8186 16.0546 44.3893 15.6254L39.4431 10.6792C39.0139 10.2499 38.3179 10.2499 37.8887 10.6792C37.4595 11.1084 37.4595 11.8044 37.8887 12.2336L39.5846 13.9295L37.5488 15.9653C35.1888 13.9275 32.1848 12.6155 28.8834 12.3755V9.58784H31.7412C32.3483 9.58784 32.8404 9.09574 32.8404 8.48868C32.8404 7.88164 32.3483 7.38953 31.7412 7.38953H23.8273ZM27.7843 14.534C34.826 14.534 40.5345 20.2425 40.5345 27.2843C40.5345 34.326 34.826 40.0345 27.7843 40.0345C20.7425 40.0345 15.034 34.326 15.034 27.2843C15.034 20.2425 20.7425 14.534 27.7843 14.534ZM34.8189 26.7896C34.8189 26.5772 34.9911 26.4049 35.2036 26.4049C35.416 26.4049 35.5883 26.5772 35.5883 26.7896C35.5883 27.0021 35.416 27.1743 35.2036 27.1743C34.9911 27.1743 34.8189 27.0021 34.8189 26.7896ZM35.2036 24.2066C33.777 24.2066 32.6206 25.363 32.6206 26.7896C32.6206 28.2162 33.777 29.3727 35.2036 29.3727C36.6302 29.3727 37.7866 28.2162 37.7866 26.7896C37.7866 25.363 36.6302 24.2066 35.2036 24.2066ZM28.2789 34.3189C28.0664 34.3189 27.8942 34.4911 27.8942 34.7036C27.8942 34.916 28.0664 35.0883 28.2789 35.0883C28.4914 35.0883 28.6636 34.916 28.6636 34.7036C28.6636 34.4911 28.4914 34.3189 28.2789 34.3189ZM25.6959 34.7036C25.6959 33.277 26.8523 32.1206 28.2789 32.1206C29.7055 32.1206 30.8619 33.277 30.8619 34.7036C30.8619 36.1302 29.7055 37.2866 28.2789 37.2866C26.8523 37.2866 25.6959 36.1302 25.6959 34.7036ZM21.9587 23.3273C21.9587 22.2953 22.7953 21.4587 23.8273 21.4587C24.8593 21.4587 25.6959 22.2953 25.6959 23.3273C25.6959 24.3593 24.8593 25.1959 23.8273 25.1959C22.7953 25.1959 21.9587 24.3593 21.9587 23.3273ZM23.8273 19.2604C21.5812 19.2604 19.7604 21.0812 19.7604 23.3273C19.7604 25.5734 21.5812 27.3942 23.8273 27.3942C26.0734 27.3942 27.8942 25.5734 27.8942 23.3273C27.8942 21.0812 26.0734 19.2604 23.8273 19.2604Z" fill="#1A62FF"/>
</svg>
